<svg xmlns="http://www.w3.org/2000/svg" viewBox="0 0 21 21">
  <g transform="translate(-424.000000, -202.000000)">
    <path d="M439,204.703468 C441.743899,206.288307 443.5,209.233492 443.5,212.5 C443.5,217.470563 439.470563,221.5 434.5,221.5 L434.5,222.5 C440.022847,222.5 444.5,218.022847 444.5,212.5 C444.5,208.979608 442.663993,205.79491 439.771469,204 L443,204 L443,203 L438,203 L438,208 L439,208 L439,204.703468 Z M429,219.62486 C426.820017,217.941342 425.5,215.334132 425.5,212.5 C425.5,207.529437 429.529437,203.5 434.5,203.5 L434.5,202.5 C428.977153,202.5 424.5,206.977153 424.5,212.5 C424.5,215.423655 425.764997,218.130849 427.884501,220 L425,220 L425,221 L430,221 L430,216 L429,216 L429,219.62486 Z"/>
  </g>
</svg>
